<svg viewBox="0 0 432.78600000000006 254.11" data-name="Camada 2" id="Camada_2" xmlns:xlink="http://www.w3.org/1999/xlink" xmlns="http://www.w3.org/2000/svg" style="max-height: 500px" width="432.78600000000006" height="254.11">
  <defs>
    <linearGradient gradientUnits="userSpaceOnUse" gradientTransform="translate(0 -15827.64) scale(1 -1)" y2="-15968.52" x2="425.52" y1="-15968.52" x1="84.66" id="linear-gradient">
      <stop stop-color="#f8f094" offset="0"/>
      <stop stop-color="#ea5b0c" offset="1"/>
    </linearGradient>
    <linearGradient gradientUnits="userSpaceOnUse" gradientTransform="translate(0 -15827.64) scale(1 -1)" y2="-15851.84" x2="76.38" y1="-15851.84" x1="0" id="linear-gradient-2">
      <stop stop-color="#ea5b0c" offset="0"/>
      <stop stop-color="#f8f094" offset="1"/>
    </linearGradient>
    <linearGradient xlink:href="#linear-gradient" y2="-15932.72" x2="425.51" y1="-15932.72" x1="256.6" id="linear-gradient-3"/>
  </defs>
  <g data-name="Camada 1" id="Camada_1-2">
    <g>
      <g>
        <g>
          <path style="fill: #fff;" d="M939.69,183.8c0,3.08-1.22,5.56-3.67,7.44-2.23,1.7-4.94,2.54-8.15,2.54-7.5,0-11.85-3.4-13.04-10.22l4.1-.7c.44,2.48,1.43,4.27,2.97,5.37,1.38.97,3.38,1.46,5.98,1.46,2.04,0,3.77-.45,5.18-1.36,1.66-1.1,2.5-2.61,2.5-4.52,0-2.38-1.68-4.11-5.04-5.18-3.11-.88-6.22-1.77-9.32-2.68-3.36-1.44-5.04-3.85-5.04-7.21,0-2.83,1.13-5.01,3.39-6.55,1.98-1.35,4.44-2.02,7.39-2.02s5.45.57,7.3,1.72c1.85,1.15,3.42,3.05,4.71,5.72l-3.77,1.74c-.94-1.95-1.99-3.28-3.15-4.01-1.16-.72-2.86-1.08-5.09-1.08-4.43,0-6.64,1.49-6.64,4.47,0,1.92,1.68,3.36,5.04,4.33,5.81,1.7,8.92,2.65,9.33,2.87,3.36,1.66,5.04,4.29,5.04,7.87Z"/>
          <path style="fill: #fff;" d="M959.28,193.37h-4.29v-32.88h4.29v32.88Z"/>
          <path style="fill: #fff;" d="M1003.69,193.37h-4.14v-21.2l-7.91,21.2h-3.63l-7.87-21.05v21.05h-4.15v-32.88h3.44l10.41,26.71,9.94-26.71h3.91v32.88Z"/>
          <path style="fill: #fff;" d="M1043.68,169.86c0,3.61-1.32,6.23-3.96,7.87-1.7,1.04-4.1,1.55-7.21,1.55h-8.19v14.08h-4.15v-32.88h12.34c3.11,0,5.51.52,7.21,1.56,2.64,1.63,3.96,4.24,3.96,7.82ZM1039.54,169.86c0-2.07-.68-3.53-2.02-4.38-1.01-.63-2.67-.94-4.99-.94h-8.19v10.69h8.19c2.32,0,3.99-.33,4.99-.99,1.35-.82,2.02-2.27,2.02-4.38Z"/>
          <path style="fill: #fff;" d="M1077.5,193.37h-19.45v-32.88h4.1v28.82h15.35v4.05Z"/>
          <path style="fill: #fff;" d="M1095.68,193.37h-4.29v-32.88h4.29v32.88Z"/>
          <path style="fill: #fff;" d="M1133.31,164.54h-16.81v9.94h15.07v3.81h-15.07v15.07h-4.1v-32.88h20.91v4.05Z"/>
          <path style="fill: #fff;" d="M1153.13,193.37h-4.29v-32.88h4.29v32.88Z"/>
          <path style="fill: #fff;" d="M1196.46,193.37h-5.37l-1.51-1.79c-2.13,1.48-4.58,2.21-7.35,2.21-4.68,0-8.24-1.88-10.69-5.65-1.76-2.67-2.64-6.41-2.64-11.21s.88-8.54,2.64-11.21c2.48-3.77,6.04-5.65,10.69-5.65s8.24,1.88,10.69,5.65c1.76,2.67,2.64,6.41,2.64,11.21,0,5.15-1,9.08-3.01,11.78l3.91,4.66ZM1191.42,176.93c0-3.99-.66-6.99-1.98-8.99-1.63-2.51-4.04-3.77-7.21-3.77s-5.54,1.26-7.21,3.77c-1.32,2.01-1.98,5.01-1.98,8.99s.66,6.99,1.98,9c1.66,2.51,4.06,3.77,7.21,3.77,1.76,0,3.29-.41,4.61-1.22-1.25-1.16-3.09-1.85-5.51-2.07v-4.05c3.58.28,6.37,1.35,8.39,3.2,1.13-1.91,1.69-4.79,1.69-8.62Z"/>
          <path style="fill: #fff;" d="M1235.27,179.57c0,9.48-4.04,14.22-12.1,14.22s-12.11-4.74-12.11-14.22v-19.07h4.15v19.07c0,3.27.48,5.67,1.46,7.21,1.22,2.01,3.39,3.01,6.5,3.01s5.29-1,6.55-3.01c.94-1.54,1.41-3.94,1.41-7.21v-19.07h4.14v19.07Z"/>
          <path style="fill: #fff;" d="M1272.9,193.37h-21.38v-32.88h21.38v4.05h-17.28v9.98h15.12v3.77h-15.12v11.02h17.28v4.05Z"/>
        </g>
        <g>
          <path style="fill: #fff;" d="M524.96,56.01h-4.66c-1.26,0-2.39.77-2.84,1.94l-19.51,49.83-19.51-49.83c-.46-1.17-1.59-1.94-2.84-1.94h-4.66c-1.01,0-1.96.5-2.53,1.34-.57.83-.69,1.9-.31,2.84l25.42,64.3c.46,1.17,1.59,1.93,2.84,1.93h3.18c1.25,0,2.38-.77,2.84-1.93l25.42-64.3c.37-.94.25-2-.31-2.84-.57-.84-1.51-1.34-2.52-1.34Z"/>
          <path style="fill: #fff;" d="M716.84,93.05c-1.91-1.59-4.23-2.97-6.9-4.12-2.52-1.07-5.31-2.06-8.31-2.93-2.13-.6-4.14-1.29-5.95-2.05-1.7-.71-3.18-1.54-4.42-2.47-1.12-.85-1.96-1.79-2.57-2.87-.56-.99-.83-2.15-.83-3.54,0-2.87.92-5.08,2.81-6.79,1.95-1.76,5.01-2.66,9.08-2.66,3.49,0,6.42.54,8.72,1.62,2.23,1.04,4.06,2.64,5.6,4.89.49.71,1.25,1.18,2.1,1.3.84.12,1.71-.13,2.37-.68l3.18-2.65c1.24-1.03,1.46-2.84.51-4.14-5.11-7.02-12.67-10.58-22.49-10.58-3.44,0-6.55.49-9.24,1.45-2.74.98-5.09,2.36-7.01,4.12-1.94,1.77-3.45,3.9-4.47,6.31-1,2.38-1.51,5.01-1.51,7.8,0,3.18.64,5.98,1.9,8.33,1.21,2.25,2.87,4.25,4.93,5.94,1.98,1.63,4.33,3.02,6.96,4.11,2.5,1.05,5.14,1.95,7.82,2.67,4.64,1.31,8.27,2.9,10.79,4.72,2.03,1.48,2.98,3.46,2.98,6.22,0,2.91-.99,5.19-3.03,6.97-2.87,2.5-7.94,3.4-14.03,2.41-1.52-.25-3-.65-4.41-1.2-1.41-.55-2.74-1.25-3.97-2.08-1.08-.73-1.98-1.61-2.68-2.63-.49-.71-1.25-1.18-2.1-1.3-.86-.12-1.72.13-2.38.68l-3.18,2.65c-1.26,1.05-1.47,2.91-.46,4.21,2.73,3.53,6.29,6.17,10.57,7.86,4.12,1.62,8.54,2.44,13.14,2.44,6.94,0,12.52-1.79,16.57-5.3,4.18-3.63,6.3-8.57,6.3-14.7,0-3.07-.57-5.78-1.69-8.08-1.1-2.25-2.68-4.24-4.7-5.92Z"/>
          <path style="fill: #fff;" d="M801.49,65.63c-2.62-3.26-5.96-5.82-9.9-7.59-3.91-1.76-8.53-2.66-13.73-2.66s-9.82.89-13.69,2.66c-3.91,1.78-7.22,4.33-9.84,7.59-2.58,3.21-4.51,7.07-5.74,11.47-1.2,4.27-1.81,9.04-1.81,14.17s.61,9.9,1.81,14.17c1.23,4.41,3.17,8.26,5.75,11.44,2.62,3.22,5.92,5.75,9.82,7.52,3.87,1.77,8.48,2.66,13.69,2.66s9.83-.89,13.73-2.66c3.94-1.77,7.27-4.31,9.89-7.53,2.58-3.17,4.51-7.02,5.75-11.43,1.2-4.27,1.81-9.04,1.81-14.17s-.61-9.89-1.81-14.17c-1.23-4.4-3.16-8.26-5.74-11.47ZM777.86,116.82c-3.55,0-6.65-.61-9.2-1.83-2.53-1.2-4.67-2.89-6.35-5.02-1.72-2.17-3.01-4.83-3.85-7.91-.88-3.22-1.33-6.85-1.33-10.8s.46-7.58,1.37-10.83c.88-3.13,2.18-5.82,3.88-8.01,1.66-2.14,3.71-3.78,6.27-4.99,2.55-1.21,5.65-1.82,9.2-1.82s6.65.61,9.2,1.82c2.57,1.22,4.65,2.87,6.35,5.02,1.72,2.18,3.04,4.86,3.91,7.99.91,3.25,1.37,6.89,1.37,10.83s-.46,7.55-1.37,10.77c-.88,3.1-2.18,5.78-3.88,7.96-1.66,2.14-3.73,3.77-6.31,4.99-2.59,1.21-5.71,1.83-9.27,1.83Z"/>
          <path style="fill: #fff;" d="M874.31,56.01h-36.97c-1.69,0-3.05,1.37-3.05,3.05v64.3c0,1.69,1.37,3.05,3.05,3.05h4.24c1.69,0,3.05-1.37,3.05-3.05v-27.14h17.64c1.69,0,3.05-1.37,3.05-3.05v-4.13c0-1.69-1.37-3.05-3.05-3.05h-17.64v-17.13s18.77-1.24,29.68-2.61c1.67-.21,3.05-1.37,3.05-3.05v-4.13c0-1.69-1.37-3.05-3.05-3.05Z"/>
          <path style="fill: #fff;" d="M947.29,56.01h-48.09c-1.69,0-3.05,1.37-3.05,3.05v4.13c0,1.69,1.39,2.77,3.05,3.05,5.93,1.01,18.87,2.61,18.87,2.61v54.51c0,1.69,1.37,3.05,3.05,3.05h4.24c1.69,0,3.05-1.37,3.05-3.05v-54.51s3.94-.26,18.87-2.61c1.67-.26,3.05-1.37,3.05-3.05v-4.13c0-1.69-1.37-3.05-3.05-3.05Z"/>
          <path style="fill: #fff;" d="M1047.61,56.01h-4.45c-1.36,0-2.55.89-2.93,2.2-2.69,9.18-5.42,18.6-8.21,28.23-1.96,6.76-3.9,13.43-5.84,20-.16-.39-.31-.78-.47-1.17-1.17-2.91-2.34-5.75-3.51-8.52l-3.55-8.41c-1.14-2.71-2.5-6.58-3.6-8.64-.71-1.35-1.47-2.68-3.03-2.68h-4.24c-1.37,0-2.52,1.09-2.91,2.39l-11.12,27.03-14.18-48.24c-.38-1.3-1.58-2.19-2.93-2.19h-4.45c-.96,0-1.87.45-2.45,1.23-.58.77-.75,1.77-.48,2.69l19.07,64.3c.39,1.3,1.58,2.19,2.93,2.19h3.28c1.23,0,2.34-.74,2.82-1.88,2.47-5.94,5.04-12.14,7.69-18.61,1.66-4.04,3.29-8,4.89-11.86l12.5,30.46c.47,1.15,1.59,1.89,2.83,1.89h3.28c1.35,0,2.54-.89,2.93-2.19l19.07-64.3c.27-.92.1-1.92-.48-2.69-.58-.78-1.48-1.23-2.45-1.23Z"/>
          <path style="fill: #fff;" d="M1269.85,66.25c1.67-.2,3.05-1.37,3.05-3.05v-4.13c0-1.69-1.37-3.05-3.05-3.05h-36.97c-1.69,0-3.05,1.37-3.05,3.05v64.3c0,1.69,1.37,3.05,3.05,3.05h36.97c1.69,0,3.05-1.37,3.05-3.05v-4.13c0-1.69-1.38-2.85-3.05-3.05-10.25-1.23-29.68-2.68-29.68-2.68v-17.27h17.64c1.69,0,3.05-1.37,3.05-3.05v-4.13c0-1.69-1.37-3.05-3.05-3.05h-17.64v-17.13s21.21-1.58,29.68-2.61Z"/>
          <path style="fill: #fff;" d="M1101.19,57.94c-.46-1.17-1.59-1.93-2.84-1.93h-3.18c-1.25,0-2.38.77-2.84,1.93l-25.42,64.3c-.37.94-.25,2,.31,2.84.57.84,1.51,1.34,2.53,1.34h4.66c1.25,0,2.38-.77,2.84-1.93l19.51-50.16,10.39,26.93,9.12,23.22c.46,1.17,1.59,1.93,2.84,1.93h4.66c1.01,0,1.96-.5,2.52-1.34.57-.83.69-1.9.31-2.84l-25.42-64.3Z"/>
          <path style="fill: #fff;" d="M1190.78,99.93c2.78-1.64,5.06-3.73,6.79-6.23,2.33-3.36,3.51-8.07,3.51-13.97,0-7.73-2.14-13.78-6.37-18-4.23-4.21-10.51-5.71-18.53-5.71h-13.34c-6.43,0-10.35,3.48-10.35,12.84v54.51c0,1.69,1.37,3.05,3.05,3.05h4.24c1.69,0,3.05-1.37,3.05-3.05v-52.93c0-3.18,1.01-4.34,3.49-4.34h9.8c4.87,0,8.66.59,11.11,2.69,2.32,1.98,3.49,5.65,3.49,10.88,0,3.21-.49,5.75-1.44,7.54-.94,1.76-2.22,3.09-3.92,4.08-1.83,1.06-4.12,1.65-6.74,2.15-2.83.54-5.26.8-6.9,1.03-1.97.27-1.6,2.45-1.34,3.36l1.17,4.14c.38,1.34.82,2.45,3.5,2.22,1.16-.03,3.14-.47,5.79-.91l10.63,21.45c.51,1.04,1.57,1.7,2.74,1.7h4.87c1.06,0,2.04-.55,2.6-1.45.55-.9.61-2.02.13-2.97l-11.04-22.07Z"/>
          <path style="fill: #fff;" d="M589.85,99.93c2.78-1.64,5.06-3.73,6.79-6.23,2.33-3.36,3.51-8.07,3.51-13.97,0-7.73-2.14-13.78-6.37-18-4.23-4.21-10.51-5.71-18.53-5.71h-13.34c-6.43,0-10.35,3.48-10.35,12.84v54.51c0,1.69,1.37,3.05,3.05,3.05h4.24c1.69,0,3.05-1.37,3.05-3.05v-52.93c0-3.18,1.01-4.34,3.49-4.34h9.8c4.87,0,8.66.59,11.12,2.69,2.32,1.98,3.49,5.65,3.49,10.88,0,3.21-.49,5.75-1.44,7.54-.94,1.76-2.22,3.09-3.92,4.08-1.83,1.06-4.12,1.65-6.74,2.15-2.83.54-5.26.8-6.9,1.03-1.97.27-1.6,2.45-1.34,3.36l1.17,4.14c.38,1.34.82,2.45,3.5,2.22,1.16-.03,3.14-.47,5.79-.91l10.63,21.45c.51,1.04,1.57,1.7,2.74,1.7h4.87c1.06,0,2.04-.55,2.6-1.45.55-.9.61-2.02.13-2.97l-11.04-22.07Z"/>
        </g>
      </g>
      <g>
        <path style="fill: url(#linear-gradient);" d="M221.07,249.22l186-65.23c17.46-7.03,20.44-14.11,17.41-32.54l-31.68-103.67c-4.26-14.51-13.36-20.66-25.62-20.11L95.9,44.41c-9.33.53-13.56,5.97-9.97,14.6l69.36,160.83c14.17,31.89,31.88,41.12,65.78,29.39Z"/>
        <path style="fill: url(#linear-gradient-2);" d="M75.18,34.54l-11.82-27.92c-1.36-3.17-6.29-6.33-9.73-6.63L10.17.04C2.86-.59-2.3,7.06,1.03,13.6l11.9,27.68c1.6,3.14,4.06,7.48,10.69,7.08l45.35-2.73c7.3-.59,8.84-4.91,6.2-11.09Z"/>
        <path style="fill: url(#linear-gradient-3);" d="M410.51,182.51c14.39-6.59,16.79-13.92,13.97-31.06l-31.68-103.67c-4.26-14.51-13.36-20.66-25.62-20.11l-110.59,6.82c40.67,29.56,94.87,76.48,153.9,148.02Z"/>
      </g>
    </g>
  </g>
</svg>